<?xml version="1.0" standalone="no"?>
<!DOCTYPE svg PUBLIC "-//W3C//DTD SVG 20010904//EN"
 "http://www.w3.org/TR/2001/REC-SVG-20010904/DTD/svg10.dtd">
<svg version="1.0" xmlns="http://www.w3.org/2000/svg"
 width="512.000000pt" height="512.000000pt" viewBox="0 0 512.000000 512.000000"
 preserveAspectRatio="xMidYMid meet">
<metadata>
Created by potrace 1.14, written by Peter Selinger 2001-2017
</metadata>
<g transform="translate(0.000000,512.000000) scale(0.100000,-0.100000)"
fill="#000000" stroke="none">
<path d="M0 2560 l0 -2560 2560 0 2560 0 0 2560 0 2560 -2560 0 -2560 0 0
-2560z m2160 1082 c279 -58 429 -151 515 -322 37 -74 85 -238 85 -291 l0 -29
-183 0 c-101 0 -231 3 -289 6 l-106 7 -22 55 c-29 70 -77 117 -159 156 -63 30
-71 31 -196 31 -127 0 -132 -1 -197 -33 -76 -37 -125 -88 -169 -174 -92 -181
-132 -462 -94 -656 46 -227 206 -389 423 -428 117 -20 206 -16 380 22 l32 7 0
163 0 164 -200 0 -200 0 0 215 0 215 490 0 490 0 0 -545 0 -544 -42 -12 c-245
-66 -865 -117 -1088 -90 -494 60 -819 342 -906 788 -12 61 -18 137 -18 248 0
138 3 175 26 270 45 188 125 345 257 502 130 155 325 251 589 288 138 20 455
13 582 -13z m2210 -102 l0 -90 -470 0 -470 0 0 -360 0 -360 450 0 450 0 0 -90
0 -90 -450 0 -450 0 0 -475 0 -475 -105 0 -105 0 0 1015 0 1015 575 0 575 0 0
-90z"/>
</g>
</svg>
